<?xml version="1.0" encoding="UTF-8" standalone="no"?>
<!-- Created with Inkscape (http://www.inkscape.org/) -->

<svg
   xmlns:dc="http://purl.org/dc/elements/1.1/"
   xmlns:cc="http://creativecommons.org/ns#"
   xmlns:rdf="http://www.w3.org/1999/02/22-rdf-syntax-ns#"
   xmlns:svg="http://www.w3.org/2000/svg"
   xmlns="http://www.w3.org/2000/svg"
   xmlns:sodipodi="http://sodipodi.sourceforge.net/DTD/sodipodi-0.dtd"
   xmlns:inkscape="http://www.inkscape.org/namespaces/inkscape"
   width="210mm"
   height="297mm"
   viewBox="0 0 210 297"
   id="svg2"
   version="1.1"
   inkscape:version="0.91+devel+osxmenu r12922"
   sodipodi:docname="FoPoRef-logo-0.11.svg"
   inkscape:export-filename="/Users/grimm/Documents/Product02/FoPoRef-logo-0.11.png"
   inkscape:export-xdpi="96"
   inkscape:export-ydpi="96">
  <defs
     id="defs4">
    <filter
       inkscape:label="Drop Shadow"
       inkscape:menu="Image Effects"
       inkscape:menu-tooltip="Glowing image content without blurring it"
       style="color-interpolation-filters:sRGB;"
       id="filter5004">
      <feGaussianBlur
         stdDeviation="5"
         result="result3"
         id="feGaussianBlur5006" />
      <feColorMatrix
         values="1 0 0 0 0 0 1 0 0 0 0 0 1 0 0 0 0 0 50 0 "
         result="result7"
         id="feColorMatrix5008" />
      <feComposite
         operator="in"
         in2="SourceGraphic"
         result="result9"
         id="feComposite5010" />
      <feComposite
         in2="result7"
         operator="arithmetic"
         in="result9"
         k1="0.5"
         k3="0.5"
         result="result1"
         id="feComposite5012" />
      <feBlend
         in2="result1"
         result="result5"
         mode="screen"
         in="SourceGraphic"
         id="feBlend5014" />
      <feBlend
         in2="result5"
         mode="darken"
         in="result5"
         result="result6"
         id="feBlend5016" />
      <feComposite
         in2="SourceGraphic"
         operator="in"
         result="fbSourceGraphic"
         id="feComposite5018" />
      <feColorMatrix
         result="fbSourceGraphicAlpha"
         in="fbSourceGraphic"
         values="0 0 0 -1 0 0 0 0 -1 0 0 0 0 -1 0 0 0 0 1 0"
         id="feColorMatrix5476" />
      <feFlood
         id="feFlood5478"
         flood-opacity="0.498039"
         flood-color="rgb(0,0,0)"
         result="flood"
         in="fbSourceGraphic" />
      <feComposite
         id="feComposite5480"
         in2="fbSourceGraphic"
         in="flood"
         operator="in"
         result="composite1" />
      <feGaussianBlur
         id="feGaussianBlur5482"
         in="composite1"
         stdDeviation="3"
         result="blur" />
      <feOffset
         id="feOffset5484"
         dx="0.9"
         dy="1.2"
         result="offset" />
      <feComposite
         id="feComposite5486"
         in2="offset"
         in="fbSourceGraphic"
         operator="over"
         result="composite2" />
    </filter>
  </defs>
  <sodipodi:namedview
     id="base"
     pagecolor="#ffffff"
     bordercolor="#666666"
     borderopacity="1.0"
     inkscape:pageopacity="0.0"
     inkscape:pageshadow="2"
     inkscape:zoom="1"
     inkscape:cx="461.27314"
     inkscape:cy="1056.3657"
     inkscape:document-units="mm"
     inkscape:current-layer="layer1"
     showgrid="false"
     showguides="false"
     inkscape:window-width="1440"
     inkscape:window-height="855"
     inkscape:window-x="0"
     inkscape:window-y="23"
     inkscape:window-maximized="0">
    <inkscape:grid
       type="xygrid"
       id="grid4269" />
  </sodipodi:namedview>
  <metadata
     id="metadata7">
    <rdf:RDF>
      <cc:Work
         rdf:about="">
        <dc:format>image/svg+xml</dc:format>
        <dc:type
           rdf:resource="http://purl.org/dc/dcmitype/StillImage" />
        <dc:title></dc:title>
      </cc:Work>
    </rdf:RDF>
  </metadata>
  <g
     inkscape:label="Layer 1"
     inkscape:groupmode="layer"
     id="layer1">
    <rect
       style="opacity:1;fill:#ffffff;fill-opacity:1;stroke:#000000;stroke-width:0.26499999;stroke-miterlimit:4;stroke-dasharray:none;stroke-opacity:1"
       id="rect5507"
       width="210.07916"
       height="73.554169"
       x="0"
       y="0.13750108"
       inkscape:export-xdpi="96"
       inkscape:export-ydpi="96" />
    <flowRoot
       xml:space="preserve"
       id="flowRoot4173"
       style="fill:black;stroke:none;stroke-opacity:1;stroke-width:1px;stroke-linejoin:miter;stroke-linecap:butt;fill-opacity:1;font-family:'Arial Rounded MT Bold';font-style:normal;font-weight:normal;font-size:40px;line-height:125%;letter-spacing:0px;word-spacing:0px;-inkscape-font-specification:'Arial Rounded MT Bold, ';font-stretch:normal;font-variant:normal"><flowRegion
         id="flowRegion4175"><rect
           id="rect4177"
           width="214.5"
           height="118.5"
           x="23"
           y="26.01969" /></flowRegion><flowPara
         id="flowPara4179"></flowPara></flowRoot>    <path
       inkscape:connector-curvature="0"
       id="path4239"
       style="font-style:normal;font-variant:normal;font-weight:normal;font-stretch:normal;font-size:medium;line-height:125%;font-family:'Arial Rounded MT Bold';-inkscape-font-specification:'Arial Rounded MT Bold, ';letter-spacing:0px;word-spacing:0px;fill:#000000;fill-opacity:1;stroke:none;stroke-width:1.09652567px;stroke-linecap:butt;stroke-linejoin:miter;stroke-opacity:1"
       d="m 66.351021,42.284429 q 0,2.612817 -0.813835,4.818719 -0.813826,2.2059 -2.355811,3.790724 -1.541993,1.584822 -3.683643,2.441479 -2.14165,0.835244 -4.81872,0.835244 -2.655643,0 -4.775876,-0.856659 -2.12024,-0.85666 -3.683647,-2.441482 -1.541989,-1.606234 -2.355815,-3.769306 -0.792408,-2.184489 -0.792408,-4.818719 0,-2.655644 0.813826,-4.861551 0.81383,-2.2059 2.334397,-3.769306 1.520576,-1.563399 3.683647,-2.398647 2.163064,-0.856662 4.775876,-0.856662 2.655648,0 4.81872,0.856662 2.163068,0.856661 3.705057,2.441482 1.541989,1.584825 2.334397,3.76931 0.813835,2.184483 0.813835,4.818712 z m -5.868129,0 q 0,-3.576555 -1.58482,-5.568293 -1.563412,-1.991733 -4.21906,-1.991733 -1.713314,0 -3.019721,0.899493 -1.306414,0.878075 -2.013155,2.612816 -0.706745,1.734734 -0.706745,4.047717 0,2.29157 0.685332,4.00489 0.706741,1.713322 1.991729,2.634233 1.30641,0.89949 3.06256,0.89949 2.655648,0 4.21906,-1.991734 1.58482,-2.013151 1.58482,-5.546879 z"
       inkscape:export-xdpi="96"
       inkscape:export-ydpi="96" />
    <path
       inkscape:connector-curvature="0"
       id="path4241"
       style="font-style:normal;font-variant:normal;font-weight:normal;font-stretch:normal;font-size:medium;line-height:125%;font-family:'Arial Rounded MT Bold';-inkscape-font-specification:'Arial Rounded MT Bold, ';letter-spacing:0px;word-spacing:0px;fill:#000000;fill-opacity:1;stroke:none;stroke-width:1.09652567px;stroke-linecap:butt;stroke-linejoin:miter;stroke-opacity:1"
       d="m 79.183787,41.406353 -5.82529,0 0,8.887854 q 0,1.906071 -0.899493,2.891231 -0.899493,0.985157 -2.270151,0.985157 -1.434901,0 -2.312981,-0.963747 -0.878079,-0.985152 -0.878079,-2.869809 l 0,-24.200665 q 0,-2.098819 0.963742,-2.99831 0.963742,-0.89949 3.062562,-0.89949 l 8.15969,0 q 3.619393,0 5.568297,0.556826 1.927484,0.535413 3.31956,1.777574 1.413491,1.242157 2.141651,3.041143 0.728164,1.798986 0.728164,4.047721 0,4.797298 -2.955477,7.28162 -2.95548,2.462895 -8.802195,2.462895 z m -1.541986,-14.391896 -4.283304,0 0,9.594595 4.283304,0 q 2.248732,0 3.747893,-0.471163 1.520568,-0.471157 2.312984,-1.541989 0.792408,-1.070826 0.792408,-2.805559 0,-2.077405 -1.220742,-3.383807 -1.370652,-1.392077 -5.632543,-1.392077 z"
       inkscape:export-xdpi="96"
       inkscape:export-ydpi="96" />
    <path
       inkscape:connector-curvature="0"
       id="path4243"
       style="font-style:normal;font-variant:normal;font-weight:normal;font-stretch:normal;font-size:medium;line-height:125%;font-family:'Arial Rounded MT Bold';-inkscape-font-specification:'Arial Rounded MT Bold, ';letter-spacing:0px;word-spacing:0px;fill:#000000;fill-opacity:1;stroke:none;stroke-width:1.09652567px;stroke-linecap:butt;stroke-linejoin:miter;stroke-opacity:1"
       d="m 112.83544,42.284429 q 0,2.612817 -0.81383,4.818719 -0.81384,2.2059 -2.35582,3.790724 -1.54199,1.584822 -3.68364,2.441479 -2.14165,0.835244 -4.81871,0.835244 -2.655656,0 -4.775889,-0.856659 -2.120239,-0.85666 -3.683634,-2.441482 -1.541997,-1.606234 -2.355824,-3.769306 -0.792408,-2.184489 -0.792408,-4.818719 0,-2.655644 0.813822,-4.861551 0.813829,-2.2059 2.33441,-3.769306 1.520563,-1.563399 3.683634,-2.398647 2.163068,-0.856662 4.775889,-0.856662 2.65564,0 4.81871,0.856662 2.16306,0.856661 3.70506,2.441482 1.54199,1.584825 2.3344,3.76931 0.81383,2.184483 0.81383,4.818712 z m -5.86813,0 q 0,-3.576555 -1.58482,-5.568293 -1.56341,-1.991733 -4.21905,-1.991733 -1.713328,0 -3.019734,0.899493 -1.306409,0.878075 -2.013155,2.612816 -0.706745,1.734734 -0.706745,4.047717 0,2.29157 0.685331,4.00489 0.706742,1.713322 1.991738,2.634233 1.30641,0.89949 3.062565,0.89949 2.65564,0 4.21905,-1.991734 1.58482,-2.013151 1.58482,-5.546879 z"
       inkscape:export-xdpi="96"
       inkscape:export-ydpi="96" />
    <path
       inkscape:connector-curvature="0"
       id="path4245"
       style="font-style:normal;font-variant:normal;font-weight:normal;font-stretch:normal;font-size:medium;line-height:125%;font-family:'Arial Rounded MT Bold';-inkscape-font-specification:'Arial Rounded MT Bold, ';letter-spacing:0px;word-spacing:0px;fill:#000000;fill-opacity:1;stroke:none;stroke-width:1.09652567px;stroke-linecap:butt;stroke-linejoin:miter;stroke-opacity:1"
       d="m 122.02741,40.207028 -2.22733,0 0,10.087179 q 0,1.991738 -0.87808,2.934063 -0.87806,0.942325 -2.29156,0.942325 -1.52057,0 -2.35581,-0.985157 -0.83525,-0.98516 -0.83525,-2.891231 l 0,-24.157833 q 0,-2.05598 0.92091,-2.976891 0.92092,-0.920909 2.9769,-0.920909 l 10.34417,0 q 2.14166,0 3.66223,0.192747 1.52056,0.171346 2.74131,0.728163 1.47774,0.621078 2.61282,1.777572 1.13507,1.15649 1.71332,2.698479 0.59967,1.520576 0.59967,3.233895 0,3.512306 -1.99175,5.611124 -1.97031,2.098819 -5.99662,2.976894 1.6919,0.899493 3.2339,2.655651 1.54199,1.756154 2.74131,3.747892 1.22074,1.970317 1.88466,3.576555 0.68531,1.584824 0.68531,2.184486 0,0.621078 -0.40692,1.24216 -0.38548,0.599657 -1.07083,0.942324 -0.68533,0.364091 -1.58482,0.364091 -1.07083,0 -1.79899,-0.513995 -0.72817,-0.49258 -1.26357,-1.263574 -0.514,-0.770995 -1.4135,-2.270148 l -2.54854,-4.240473 q -1.37066,-2.334402 -2.4629,-3.555136 -1.07082,-1.220744 -2.18448,-1.670497 -1.11366,-0.449744 -2.80556,-0.449744 z m 3.6408,-13.192571 -5.86813,0 0,8.630857 5.6968,0 q 2.29156,0 3.85497,-0.385472 1.5634,-0.406885 2.37723,-1.349233 0.83524,-0.963743 0.83524,-2.634231 0,-1.306409 -0.6639,-2.291566 -0.66392,-1.006578 -1.84183,-1.499158 -1.11366,-0.471162 -4.39038,-0.471162 z"
       inkscape:export-xdpi="96"
       inkscape:export-ydpi="96" />
    <path
       inkscape:connector-curvature="0"
       id="path4247"
       style="font-style:normal;font-variant:normal;font-weight:normal;font-stretch:normal;font-size:medium;line-height:125%;font-family:'Arial Rounded MT Bold';-inkscape-font-specification:'Arial Rounded MT Bold, ';letter-spacing:0px;word-spacing:0px;fill:#000000;fill-opacity:1;stroke:none;stroke-width:1.09652567px;stroke-linecap:butt;stroke-linejoin:miter;stroke-opacity:1"
       d="m 155.46286,43.719337 -11.43641,0 q 0.0218,1.991738 0.79241,3.512309 0.79241,1.520573 2.07739,2.291566 1.30641,0.770995 2.86982,0.770995 1.04942,0 1.90607,-0.235559 0.87808,-0.25702 1.6919,-0.770987 0.81384,-0.535419 1.49916,-1.135079 0.68534,-0.599661 1.77758,-1.627653 0.44974,-0.385471 1.28498,-0.385471 0.8995,0 1.45633,0.492583 0.55683,0.49258 0.55683,1.392073 0,0.79241 -0.62108,1.86324 -0.62107,1.049405 -1.88466,2.034565 -1.24215,0.963747 -3.14823,1.606235 -1.88465,0.642496 -4.34754,0.642496 -5.63255,0 -8.75936,-3.212473 -3.12681,-3.212481 -3.12681,-8.716523 0,-2.591395 0.771,-4.797302 0.77099,-2.227317 2.24873,-3.812134 1.47774,-1.584825 3.64081,-2.420069 2.16307,-0.856665 4.7973,-0.856665 3.42664,0 5.86812,1.456326 2.4629,1.434908 3.68364,3.726474 1.22074,2.291566 1.22074,4.668799 0,2.205904 -1.26358,2.869813 -1.26357,0.642497 -3.55514,0.642497 z m -11.43641,-3.319557 10.60117,0 q -0.21418,-2.998312 -1.62765,-4.476052 -1.39207,-1.499161 -3.68364,-1.499161 -2.18449,0 -3.59797,1.520579 -1.39208,1.49915 -1.69191,4.454634 z"
       inkscape:export-xdpi="96"
       inkscape:export-ydpi="96" />
    <path
       inkscape:connector-curvature="0"
       id="path4249"
       style="font-style:normal;font-variant:normal;font-weight:normal;font-stretch:normal;font-size:medium;line-height:125%;font-family:'Arial Rounded MT Bold';-inkscape-font-specification:'Arial Rounded MT Bold, ';letter-spacing:0px;word-spacing:0px;fill:#000000;fill-opacity:1;stroke:none;stroke-width:1.22165048px;stroke-linecap:butt;stroke-linejoin:miter;stroke-opacity:1"
       d="m 160.04631,28.258248 1.55092,0 0,-1.956547 q 0,-3.054132 0.76354,-4.843659 0.78739,-1.813387 2.62463,-2.624637 1.86111,-0.835113 5.08226,-0.835113 5.70263,0 5.70263,2.791661 0,0.906698 -0.59652,1.550924 -0.59651,0.644226 -1.40775,0.644226 -0.38178,0 -1.31232,-0.143152 -0.93056,-0.143153 -1.57479,-0.143153 -1.76567,0 -2.26673,1.049854 -0.50107,1.025995 -0.50107,2.958685 l 0,1.550926 1.59864,0 q 3.72222,0 3.72222,2.242873 0,1.59864 -1.00214,2.02813 -0.97827,0.429458 -2.72008,0.429458 l -1.59864,0 0,17.251043 q 0,1.932688 -0.93055,2.958676 -0.90669,1.002139 -2.36218,1.002139 -1.3839,0 -2.31445,-1.002139 -0.9067,-1.025988 -0.9067,-2.958676 l 0,-17.251043 -1.78952,0 q -1.45549,0 -2.24288,-0.64423 -0.78739,-0.668092 -0.78739,-1.717945 0,-2.338317 3.26887,-2.338317 z"
       inkscape:export-xdpi="96"
       inkscape:export-ydpi="96" />
    <path
       style="font-style:normal;font-variant:normal;font-weight:normal;font-stretch:normal;font-size:medium;line-height:125%;font-family:'Arial Rounded MT Bold';-inkscape-font-specification:'Arial Rounded MT Bold, ';letter-spacing:0px;word-spacing:0px;fill:#000000;fill-opacity:1;stroke:none;stroke-width:1.06685197px;stroke-linecap:butt;stroke-linejoin:miter;stroke-opacity:1;filter:url(#filter5004)"
       d="m 52.925781,32.605469 c -0.877716,0 -1.602617,0.133299 -2.173828,0.396484 -0.55728,0.249302 -0.967715,0.654769 -1.232422,1.222656 -0.26468,0.554027 -0.396484,1.275661 -0.396484,2.16211 l 0,23.435547 c 0,0.239622 0.02061,0.457242 0.04102,0.673828 0.07461,2.865634 0.350909,5.577699 1.378907,8.044922 1.313816,3.15315 4.65226,5.685546 8.730469,5.685546 l 134.363287,0 a 3.0935921,3.0935921 0 0 0 0.1543,0.0078 A 3.0935921,3.0935921 0 0 0 194,74.226562 3.0935921,3.0935921 0 0 0 196.88477,71.140625 3.0935921,3.0935921 0 0 0 194,68.056641 l 0,-0.0078 -0.16992,0 a 3.0935921,3.0935921 0 0 0 -0.0391,-0.002 3.0935921,3.0935921 0 0 0 -0.0547,0.002 l -134.462892,0 c -2.190048,0 -2.378412,-0.334759 -3.023438,-1.882812 -0.587429,-1.409836 -0.871431,-4.048163 -0.919922,-7.181641 l 0,-9.197266 10.21875,0 c 0.933441,0 1.637636,-0.207559 2.111328,-0.623047 0.473688,-0.41552 0.708985,-0.977203 0.708985,-1.683593 0,-0.70639 -0.235285,-1.26612 -0.708985,-1.681641 -0.459745,-0.429362 -1.163955,-0.644531 -2.111328,-0.644531 l -10.21875,0 0,-7.791016 12.226563,0 c 0.989166,0 1.719675,-0.215165 2.193359,-0.644531 0.487627,-0.44323 0.730469,-1.023904 0.730469,-1.744141 0,-0.706385 -0.242853,-1.273751 -0.730469,-1.703125 -0.473681,-0.443221 -1.204193,-0.666015 -2.193359,-0.666015 l -14.63086,0 z"
       transform="matrix(1.049597,0,0,1.049597,-26.962766,-16.37027)"
       id="path4237"
       inkscape:export-xdpi="96"
       inkscape:export-ydpi="96"
       inkscape:connector-curvature="0" />
    <ellipse
       style="opacity:1;fill:#d48dff;fill-opacity:0.39495802;stroke-width:2.50291681;stroke-miterlimit:4;stroke-dasharray:none"
       id="path4306"
       cx="105.14478"
       cy="55.932678"
       rx="71.712875"
       ry="0.51024675"
       inkscape:export-xdpi="96"
       inkscape:export-ydpi="96" />
    <ellipse
       ry="0.51024675"
       rx="9.2772141"
       cy="18.731045"
       cx="36.122295"
       id="ellipse4308"
       style="opacity:1;fill:#d48dff;fill-opacity:0.39495802;stroke-width:0.90023661;stroke-miterlimit:4;stroke-dasharray:none"
       inkscape:export-xdpi="96"
       inkscape:export-ydpi="96" />
    <ellipse
       ry="0.51024675"
       rx="6.4476638"
       cy="23.369658"
       cx="76.802879"
       id="ellipse4310"
       style="opacity:1;fill:#d48dff;fill-opacity:0.39495802;stroke-width:0.75049722;stroke-miterlimit:4;stroke-dasharray:none"
       inkscape:export-xdpi="96"
       inkscape:export-ydpi="96" />
    <ellipse
       ry="0.51024675"
       rx="7.79286"
       cy="23.369658"
       cx="123.60644"
       id="ellipse4312"
       style="opacity:1;fill:#d48dff;fill-opacity:0.39495802;stroke-width:0.82508045;stroke-miterlimit:4;stroke-dasharray:none"
       inkscape:export-xdpi="96"
       inkscape:export-ydpi="96" />
    <ellipse
       style="opacity:1;fill:#d48dff;fill-opacity:0.39495802;stroke-width:0.54014194;stroke-miterlimit:4;stroke-dasharray:none"
       id="ellipse4314"
       cx="169.99254"
       cy="19.102139"
       rx="3.339797"
       ry="0.51024675"
       inkscape:export-xdpi="96"
       inkscape:export-ydpi="96" />
    <ellipse
       ry="0.51024675"
       rx="1.4379679"
       cy="29.028755"
       cx="159.55566"
       id="ellipse4316"
       style="opacity:1;fill:#d48dff;fill-opacity:0.39495802;stroke-width:0.35442346;stroke-miterlimit:4;stroke-dasharray:none"
       inkscape:export-xdpi="96"
       inkscape:export-ydpi="96" />
    <ellipse
       style="opacity:1;fill:#d48dff;fill-opacity:0.39495802;stroke-width:0.35442346;stroke-miterlimit:4;stroke-dasharray:none"
       id="ellipse4318"
       cx="170.22444"
       cy="28.935984"
       rx="1.4379679"
       ry="0.51024675"
       inkscape:export-xdpi="96"
       inkscape:export-ydpi="96" />
    <ellipse
       style="opacity:1;fill:#d48dff;fill-opacity:0.39495802;stroke-width:0.57866508;stroke-miterlimit:4;stroke-dasharray:none"
       id="ellipse4320"
       cx="149.53625"
       cy="41.181904"
       rx="4.6849928"
       ry="0.41747466"
       inkscape:export-xdpi="96"
       inkscape:export-ydpi="96" />
    <ellipse
       ry="0.51024675"
       rx="6.030189"
       cy="31.904694"
       cx="37.235554"
       id="ellipse4322"
       style="opacity:1;fill:#d48dff;fill-opacity:0.39495802;stroke-width:0.72579396;stroke-miterlimit:4;stroke-dasharray:none"
       inkscape:export-xdpi="96"
       inkscape:export-ydpi="96" />
    <ellipse
       style="opacity:1;fill:#d48dff;fill-opacity:0.39495802;stroke-width:0.52492362;stroke-miterlimit:4;stroke-dasharray:none"
       id="ellipse4324"
       cx="76.47818"
       cy="37.285477"
       rx="3.1542523"
       ry="0.51024675"
       inkscape:export-xdpi="96"
       inkscape:export-ydpi="96" />
    <ellipse
       ry="0.51024675"
       rx="3.8036575"
       cy="36.357758"
       cx="123.51364"
       id="ellipse4326"
       style="opacity:1;fill:#d48dff;fill-opacity:0.39495802;stroke-width:0.5764327;stroke-miterlimit:4;stroke-dasharray:none"
       inkscape:export-xdpi="96"
       inkscape:export-ydpi="96" />
    <path
       inkscape:connector-curvature="0"
       id="path4334"
       d="M 63.577176,13.345404 A 13.82305,10.297708 0 0 1 73.8292,9.9383109 13.82305,10.297708 0 0 1 83.603571,12.962051 10.297708,8.9988977 0 0 0 73.642649,6.2278271 10.297708,8.9988977 0 0 0 63.577176,13.345404 Z"
       style="opacity:1;fill:#d48dff;fill-opacity:0.39495802;stroke-width:1.05124986;stroke-miterlimit:4;stroke-dasharray:none"
       inkscape:export-xdpi="96"
       inkscape:export-ydpi="96" />
    <path
       style="opacity:1;fill:#d48dff;fill-opacity:0.39495802;stroke-width:1.05124986;stroke-miterlimit:4;stroke-dasharray:none"
       d="m 122.17427,5.5174844 a 13.82305,10.297708 0 0 1 -10.25202,3.4070931 13.82305,10.297708 0 0 1 -9.77437,-3.0237399 10.297708,8.9988977 0 0 0 9.96092,6.7342234 10.297708,8.9988977 0 0 0 10.06547,-7.1175766 z"
       id="path4336"
       inkscape:connector-curvature="0"
       inkscape:export-xdpi="96"
       inkscape:export-ydpi="96" />
    <path
       style="opacity:1;fill:#d48dff;fill-opacity:0.39495802;stroke-width:0.38034281;stroke-miterlimit:4;stroke-dasharray:none"
       d="m 49.014018,32.369349 a 8.0132104,2.3252854 0 0 1 5.943083,-0.76934 8.0132104,2.3252854 0 0 1 5.666206,0.68278 5.9695722,2.0320064 0 0 0 -5.774341,-1.52063 5.9695722,2.0320064 0 0 0 -5.834948,1.60719 z"
       id="path4338"
       inkscape:connector-curvature="0"
       inkscape:export-xdpi="96"
       inkscape:export-ydpi="96" />
    <path
       inkscape:connector-curvature="0"
       id="path4340"
       d="m 58.542455,49.338162 a 5.2199033,1.7558281 0 0 1 -3.8714,0.580932 5.2199033,1.7558281 0 0 1 -3.69103,-0.515569 3.8886526,1.5343723 0 0 0 3.761475,1.148231 3.8886526,1.5343723 0 0 0 3.800955,-1.213594 z"
       style="opacity:1;fill:#d48dff;fill-opacity:0.39495802;stroke-width:0.26675099;stroke-miterlimit:4;stroke-dasharray:none"
       inkscape:export-xdpi="96"
       inkscape:export-ydpi="96" />
    <path
       inkscape:connector-curvature="0"
       id="path4342"
       d="m 95.852287,32.500549 a 8.0132104,2.3252854 0 0 1 5.943083,-0.76934 8.0132104,2.3252854 0 0 1 5.66621,0.682781 5.9695722,2.0320064 0 0 0 -5.77434,-1.520631 5.9695722,2.0320064 0 0 0 -5.834953,1.60719 z"
       style="opacity:1;fill:#d48dff;fill-opacity:0.39495802;stroke-width:0.38034281;stroke-miterlimit:4;stroke-dasharray:none"
       inkscape:export-xdpi="96"
       inkscape:export-ydpi="96" />
    <path
       style="opacity:1;fill:#d48dff;fill-opacity:0.39495802;stroke-width:0.26675099;stroke-miterlimit:4;stroke-dasharray:none"
       d="m 105.11832,49.206961 a 5.2199033,1.7558281 0 0 1 -3.8714,0.580933 5.2199033,1.7558281 0 0 1 -3.691029,-0.515568 3.8886526,1.5343723 0 0 0 3.761479,1.148229 3.8886526,1.5343723 0 0 0 3.80095,-1.213594 z"
       id="path4344"
       inkscape:connector-curvature="0"
       inkscape:export-xdpi="96"
       inkscape:export-ydpi="96" />
    <path
       style="opacity:1;fill:#d48dff;fill-opacity:0.39495802;stroke-width:0.38034281;stroke-miterlimit:4;stroke-dasharray:none"
       d="m 143.87134,32.369349 a 8.0132104,2.3252854 0 0 1 5.94309,-0.76934 8.0132104,2.3252854 0 0 1 5.66621,0.68278 5.9695722,2.0320064 0 0 0 -5.77434,-1.52063 5.9695722,2.0320064 0 0 0 -5.83496,1.60719 z"
       id="path4346"
       inkscape:connector-curvature="0"
       inkscape:export-xdpi="96"
       inkscape:export-ydpi="96" />
    <path
       inkscape:connector-curvature="0"
       id="path4348"
       d="m 153.39978,49.731761 a 4.8576656,1.7558281 0 0 1 -3.60274,0.580933 4.8576656,1.7558281 0 0 1 -3.43488,-0.515569 3.6187976,1.5343723 0 0 0 3.50043,1.148231 3.6187976,1.5343723 0 0 0 3.53719,-1.213595 z"
       style="opacity:1;fill:#d48dff;fill-opacity:0.39495802;stroke-width:0.25732899;stroke-miterlimit:4;stroke-dasharray:none"
       inkscape:export-xdpi="96"
       inkscape:export-ydpi="96" />
    <path
       inkscape:connector-curvature="0"
       id="path4356"
       d="m 139.40159,8.3239055 a 4.5807589,3.4125115 49.241749 0 1 3.07326,1.8362815 4.5807589,3.4125115 49.241749 0 1 1.3557,3.107703 3.4125115,2.9821046 49.241749 0 0 -0.46467,-3.957298 3.4125115,2.9821046 49.241749 0 0 -3.96429,-0.9866865 z"
       style="opacity:1;fill:#d48dff;fill-opacity:0.39495802;stroke-width:0.348369;stroke-miterlimit:4;stroke-dasharray:none"
       inkscape:export-xdpi="96"
       inkscape:export-ydpi="96" />
    <path
       style="opacity:0.5;fill:#d48dff;fill-opacity:0.39495802;stroke-width:0.33519214;stroke-miterlimit:4;stroke-dasharray:none"
       d="m 129.29042,26.924113 a 4.4324164,3.2649724 36.04149 0 1 3.16148,1.652561 4.4324164,3.2649724 36.04149 0 1 1.39462,2.796769 3.3511128,2.8113601 24.629163 0 0 -0.47801,-3.561362 3.3511128,2.8113601 24.629163 0 0 -4.07809,-0.887968 z"
       id="path4358"
       inkscape:connector-curvature="0"
       inkscape:export-xdpi="96"
       inkscape:export-ydpi="96" />
    <path
       inkscape:connector-curvature="0"
       id="path4364"
       d="m 80.615355,27.055312 a 4.4324164,3.2649724 36.04149 0 1 3.16149,1.652561 4.4324164,3.2649724 36.04149 0 1 1.394612,2.79677 3.3511128,2.8113601 24.629163 0 0 -0.478009,-3.561361 3.3511128,2.8113601 24.629163 0 0 -4.078093,-0.88797 z"
       style="opacity:0.5;fill:#d48dff;fill-opacity:0.39495802;stroke-width:0.33519214;stroke-miterlimit:4;stroke-dasharray:none"
       inkscape:export-xdpi="96"
       inkscape:export-ydpi="96" />
    <path
       style="opacity:0.5;fill:#d48dff;fill-opacity:0.39495802;stroke-width:0.42980039;stroke-miterlimit:4;stroke-dasharray:none"
       d="m 125.68646,41.068173 a 8.2829226,2.8726476 65.650356 0 1 3.34263,2.785257 8.2829226,2.8726476 65.650356 0 1 2.86273,5.600928 6.4701224,2.3940814 69.092543 0 0 -2.72857,-7.423213 6.4701224,2.3940814 69.092543 0 0 -3.47678,-0.962977 z"
       id="path4366"
       inkscape:connector-curvature="0"
       inkscape:export-xdpi="96"
       inkscape:export-ydpi="96" />
    <path
       inkscape:connector-curvature="0"
       id="path4368"
       d="m 102.65689,34.92729 a 4.4324164,3.2649724 36.04149 0 1 3.16149,1.652561 4.4324164,3.2649724 36.04149 0 1 1.39461,2.79677 3.3511128,2.8113601 24.629163 0 0 -0.47801,-3.561362 3.3511128,2.8113601 24.629163 0 0 -4.07809,-0.887969 z"
       style="opacity:0.5;fill:#d48dff;fill-opacity:0.39495802;stroke-width:0.33519214;stroke-miterlimit:4;stroke-dasharray:none"
       inkscape:export-xdpi="96"
       inkscape:export-ydpi="96" />
    <path
       style="opacity:0.5;fill:#d48dff;fill-opacity:0.39495802;stroke-width:0.33519214;stroke-miterlimit:4;stroke-dasharray:none"
       d="m 150.48899,34.326939 a 4.4324164,3.2649724 36.04149 0 1 3.16148,1.652562 4.4324164,3.2649724 36.04149 0 1 1.39463,2.796768 3.3511128,2.8113601 24.629163 0 0 -0.47802,-3.561361 3.3511128,2.8113601 24.629163 0 0 -4.07809,-0.887969 z"
       id="path4370"
       inkscape:connector-curvature="0"
       inkscape:export-xdpi="96"
       inkscape:export-ydpi="96" />
    <path
       style="opacity:0.5;fill:#d48dff;fill-opacity:0.39495802;stroke-width:0.33519214;stroke-miterlimit:4;stroke-dasharray:none"
       d="m 55.949827,34.92729 a 4.4324164,3.2649724 36.04149 0 1 3.161489,1.652561 4.4324164,3.2649724 36.04149 0 1 1.394612,2.79677 3.3511128,2.8113601 24.629163 0 0 -0.478009,-3.561362 3.3511128,2.8113601 24.629163 0 0 -4.078092,-0.887969 z"
       id="path4372"
       inkscape:connector-curvature="0"
       inkscape:export-xdpi="96"
       inkscape:export-ydpi="96" />
  </g>
</svg>
